<mxfile host="65bd71144e" scale="10" border="0">
    <diagram id="RrSnb8na4pvMSzzhe3lu" name="use case diagram">
        <mxGraphModel dx="823" dy="599" grid="1" gridSize="10" guides="1" tooltips="1" connect="1" arrows="1" fold="1" page="1" pageScale="1" pageWidth="827" pageHeight="1169" math="0" shadow="0">
            <root>
                <mxCell id="0"/>
                <mxCell id="1" parent="0"/>
                <mxCell id="23" style="edgeStyle=none;html=1;entryX=0;entryY=0.5;entryDx=0;entryDy=0;exitX=0.5;exitY=0.5;exitDx=0;exitDy=0;exitPerimeter=0;fillColor=#1ba1e2;strokeColor=#006EAF;fontFamily=th sarabunPSK;fontSize=16;rounded=1;" parent="1" source="4" target="7" edge="1">
                    <mxGeometry relative="1" as="geometry"/>
                </mxCell>
                <mxCell id="24" style="edgeStyle=none;html=1;entryX=0;entryY=0.5;entryDx=0;entryDy=0;exitX=0.5;exitY=0.5;exitDx=0;exitDy=0;exitPerimeter=0;fillColor=#1ba1e2;strokeColor=#006EAF;fontFamily=th sarabunPSK;fontSize=16;rounded=1;" parent="1" source="4" target="8" edge="1">
                    <mxGeometry relative="1" as="geometry"/>
                </mxCell>
                <mxCell id="25" style="edgeStyle=none;html=1;entryX=0;entryY=0.5;entryDx=0;entryDy=0;exitX=0.5;exitY=0.5;exitDx=0;exitDy=0;exitPerimeter=0;fillColor=#1ba1e2;strokeColor=#006EAF;fontFamily=th sarabunPSK;fontSize=16;rounded=1;" parent="1" source="4" target="9" edge="1">
                    <mxGeometry relative="1" as="geometry"/>
                </mxCell>
                <mxCell id="26" style="edgeStyle=none;html=1;entryX=0;entryY=0.5;entryDx=0;entryDy=0;exitX=0.5;exitY=0.5;exitDx=0;exitDy=0;exitPerimeter=0;fillColor=#1ba1e2;strokeColor=#006EAF;fontFamily=th sarabunPSK;fontSize=16;rounded=1;" parent="1" source="4" target="10" edge="1">
                    <mxGeometry relative="1" as="geometry"/>
                </mxCell>
                <mxCell id="34" style="edgeStyle=none;html=1;exitX=0.5;exitY=0.5;exitDx=0;exitDy=0;exitPerimeter=0;entryX=0;entryY=0.5;entryDx=0;entryDy=0;fillColor=#1ba1e2;strokeColor=#006EAF;fontFamily=th sarabunPSK;fontSize=16;rounded=1;" parent="1" source="4" target="32" edge="1">
                    <mxGeometry relative="1" as="geometry"/>
                </mxCell>
                <mxCell id="36" style="edgeStyle=none;html=1;exitX=0.5;exitY=0.5;exitDx=0;exitDy=0;exitPerimeter=0;entryX=0;entryY=0.5;entryDx=0;entryDy=0;fillColor=#1ba1e2;strokeColor=#006EAF;fontFamily=th sarabunPSK;fontSize=16;rounded=1;" parent="1" source="4" target="35" edge="1">
                    <mxGeometry relative="1" as="geometry"/>
                </mxCell>
                <mxCell id="43" style="edgeStyle=none;html=1;exitX=0.5;exitY=0.5;exitDx=0;exitDy=0;exitPerimeter=0;entryX=0;entryY=0.5;entryDx=0;entryDy=0;fillColor=#1ba1e2;strokeColor=#006EAF;" edge="1" parent="1" source="4" target="41">
                    <mxGeometry relative="1" as="geometry"/>
                </mxCell>
                <mxCell id="4" value="ลูกค้า" style="shape=umlActor;verticalLabelPosition=bottom;verticalAlign=top;html=1;outlineConnect=0;fillColor=none;fontColor=#000000;strokeColor=#006EAF;fontFamily=th sarabunPSK;fontSize=16;rounded=1;" parent="1" vertex="1">
                    <mxGeometry x="110" y="300" width="30" height="60" as="geometry"/>
                </mxCell>
                <mxCell id="22" style="edgeStyle=none;html=1;entryX=0;entryY=0.5;entryDx=0;entryDy=0;exitX=0.5;exitY=0.5;exitDx=0;exitDy=0;exitPerimeter=0;fillColor=#d80073;strokeColor=#A50040;fontFamily=th sarabunPSK;fontSize=16;rounded=1;" parent="1" source="5" target="7" edge="1">
                    <mxGeometry relative="1" as="geometry"/>
                </mxCell>
                <mxCell id="33" style="edgeStyle=none;html=1;exitX=0.5;exitY=0.5;exitDx=0;exitDy=0;exitPerimeter=0;fillColor=#d80073;strokeColor=#A50040;fontFamily=th sarabunPSK;fontSize=16;rounded=1;entryX=0;entryY=0.5;entryDx=0;entryDy=0;" parent="1" source="5" target="32" edge="1">
                    <mxGeometry relative="1" as="geometry"/>
                </mxCell>
                <mxCell id="40" style="edgeStyle=none;html=1;exitX=0.5;exitY=0.5;exitDx=0;exitDy=0;exitPerimeter=0;entryX=0;entryY=0.5;entryDx=0;entryDy=0;fillColor=#d80073;strokeColor=#A50040;fontFamily=th sarabunPSK;fontSize=16;rounded=1;" parent="1" source="5" target="35" edge="1">
                    <mxGeometry relative="1" as="geometry"/>
                </mxCell>
                <mxCell id="42" style="edgeStyle=none;html=1;exitX=0.5;exitY=0.5;exitDx=0;exitDy=0;exitPerimeter=0;entryX=0;entryY=0.5;entryDx=0;entryDy=0;fillColor=#d80073;strokeColor=#A50040;" parent="1" source="5" target="41" edge="1">
                    <mxGeometry relative="1" as="geometry"/>
                </mxCell>
                <mxCell id="5" value="ผู้เยี่ยมชม" style="shape=umlActor;verticalLabelPosition=bottom;verticalAlign=top;html=1;outlineConnect=0;fillColor=none;fontColor=#000000;strokeColor=#A50040;fontFamily=th sarabunPSK;fontSize=16;rounded=1;" parent="1" vertex="1">
                    <mxGeometry x="110" y="180" width="30" height="60" as="geometry"/>
                </mxCell>
                <mxCell id="13" style="edgeStyle=none;html=1;exitX=0.5;exitY=0.5;exitDx=0;exitDy=0;exitPerimeter=0;entryX=1;entryY=0.5;entryDx=0;entryDy=0;fillColor=#e3c800;strokeColor=#B09500;fontFamily=th sarabunPSK;fontSize=16;rounded=1;" parent="1" source="6" target="11" edge="1">
                    <mxGeometry relative="1" as="geometry"/>
                </mxCell>
                <mxCell id="15" style="edgeStyle=none;html=1;exitX=0.5;exitY=0.5;exitDx=0;exitDy=0;exitPerimeter=0;entryX=1;entryY=0.5;entryDx=0;entryDy=0;fillColor=#e3c800;strokeColor=#B09500;fontFamily=th sarabunPSK;fontSize=16;rounded=1;" parent="1" source="6" target="12" edge="1">
                    <mxGeometry relative="1" as="geometry"/>
                </mxCell>
                <mxCell id="16" style="edgeStyle=none;html=1;exitX=0.5;exitY=0.5;exitDx=0;exitDy=0;exitPerimeter=0;entryX=1;entryY=0.5;entryDx=0;entryDy=0;fillColor=#e3c800;strokeColor=#B09500;fontFamily=th sarabunPSK;fontSize=16;rounded=1;" parent="1" source="6" target="14" edge="1">
                    <mxGeometry relative="1" as="geometry"/>
                </mxCell>
                <mxCell id="31" style="edgeStyle=none;html=1;exitX=0.5;exitY=0.5;exitDx=0;exitDy=0;exitPerimeter=0;entryX=1;entryY=0.5;entryDx=0;entryDy=0;fillColor=#e3c800;strokeColor=#B09500;fontFamily=th sarabunPSK;fontSize=16;rounded=1;" parent="1" source="6" target="30" edge="1">
                    <mxGeometry relative="1" as="geometry"/>
                </mxCell>
                <mxCell id="6" value="พนักงาน" style="shape=umlActor;verticalLabelPosition=bottom;verticalAlign=top;html=1;outlineConnect=0;fillColor=none;fontColor=#000000;strokeColor=#B09500;fontFamily=th sarabunPSK;fontSize=16;rounded=1;" parent="1" vertex="1">
                    <mxGeometry x="670" y="810" width="30" height="60" as="geometry"/>
                </mxCell>
                <mxCell id="7" value="จองเข้ารับบริการ" style="ellipse;whiteSpace=wrap;html=1;fontFamily=th sarabunPSK;fontSize=16;rounded=1;" parent="1" vertex="1">
                    <mxGeometry x="340" y="340" width="170" height="60" as="geometry"/>
                </mxCell>
                <mxCell id="8" value="ตรวจสอบการจองเข้ารับบริการ" style="ellipse;whiteSpace=wrap;html=1;fontFamily=th sarabunPSK;fontSize=16;rounded=1;" parent="1" vertex="1">
                    <mxGeometry x="340" y="420" width="170" height="60" as="geometry"/>
                </mxCell>
                <mxCell id="9" value="แก้ไขการจองเข้ารับบริการ" style="ellipse;whiteSpace=wrap;html=1;fontFamily=th sarabunPSK;fontSize=16;rounded=1;" parent="1" vertex="1">
                    <mxGeometry x="340" y="500" width="170" height="60" as="geometry"/>
                </mxCell>
                <mxCell id="10" value="ลบการจองเข้ารับบริการ" style="ellipse;whiteSpace=wrap;html=1;fontFamily=th sarabunPSK;fontSize=16;rounded=1;" parent="1" vertex="1">
                    <mxGeometry x="340" y="580" width="170" height="60" as="geometry"/>
                </mxCell>
                <mxCell id="11" value="ตรวจสอบประวัติการเข้ารับบริการ" style="ellipse;whiteSpace=wrap;html=1;fontFamily=th sarabunPSK;fontSize=16;rounded=1;" parent="1" vertex="1">
                    <mxGeometry x="340" y="670" width="170" height="60" as="geometry"/>
                </mxCell>
                <mxCell id="12" value="แก้ไขประวัติการจองเข้ารับบริการ" style="ellipse;whiteSpace=wrap;html=1;fontFamily=th sarabunPSK;fontSize=16;rounded=1;" parent="1" vertex="1">
                    <mxGeometry x="340" y="760" width="170" height="60" as="geometry"/>
                </mxCell>
                <mxCell id="14" value="ลบประวัติการจองเข้ารับบริการ" style="ellipse;whiteSpace=wrap;html=1;fontFamily=th sarabunPSK;fontSize=16;rounded=1;" parent="1" vertex="1">
                    <mxGeometry x="340" y="850" width="170" height="60" as="geometry"/>
                </mxCell>
                <mxCell id="30" value="แสดงการนัดหมายลูกค้า" style="ellipse;whiteSpace=wrap;html=1;fontFamily=th sarabunPSK;fontSize=16;rounded=1;" parent="1" vertex="1">
                    <mxGeometry x="340" y="940" width="170" height="60" as="geometry"/>
                </mxCell>
                <mxCell id="32" value="แสดงสาขาของศูนย์บริการ" style="ellipse;whiteSpace=wrap;html=1;fontFamily=th sarabunPSK;fontSize=16;rounded=1;" parent="1" vertex="1">
                    <mxGeometry x="340" y="100" width="170" height="60" as="geometry"/>
                </mxCell>
                <mxCell id="35" value="แสดง Promotion" style="ellipse;whiteSpace=wrap;html=1;fontFamily=th sarabunPSK;fontSize=16;rounded=1;" parent="1" vertex="1">
                    <mxGeometry x="340" y="180" width="170" height="60" as="geometry"/>
                </mxCell>
                <mxCell id="41" value="แสดงวันที่สามารถจอง&lt;br&gt;เข้ารับบริการได้" style="ellipse;whiteSpace=wrap;html=1;fontFamily=th sarabunPSK;fontSize=16;rounded=1;" parent="1" vertex="1">
                    <mxGeometry x="340" y="260" width="170" height="60" as="geometry"/>
                </mxCell>
            </root>
        </mxGraphModel>
    </diagram>
</mxfile>